<svg xmlns="http://www.w3.org/2000/svg" viewBox="0 0 800 800" role="img" aria-label="Illustrated tee concept">
  <defs>
    <linearGradient id="bg" x1="0" y1="0" x2="1" y2="1">
      <stop offset="0%" stop-color="#080808"/>
      <stop offset="100%" stop-color="#1b0505"/>
    </linearGradient>
    <linearGradient id="tee" x1="0" y1="0" x2="0" y2="1">
      <stop offset="0%" stop-color="#2a2a2a"/>
      <stop offset="100%" stop-color="#111"/>
    </linearGradient>
  </defs>
  <rect width="800" height="800" fill="url(#bg)"/>
  <circle cx="650" cy="120" r="130" fill="#ff2d2d" fill-opacity=".18"/>
  <circle cx="120" cy="710" r="180" fill="#ffe600" fill-opacity=".12"/>
  <g transform="translate(130,130)">
    <path d="M180 80 280 40l110 0 100 40 80 120-90 58-36-60v350H236V198l-35 60-91-58z" fill="url(#tee)" stroke="#ff2d2d" stroke-width="10"/>
    <path d="M285 40c8 40 30 63 58 63 31 0 53-23 61-63" fill="none" stroke="#ffe600" stroke-width="8"/>
    <rect x="276" y="240" width="170" height="132" rx="18" fill="#151515" stroke="#ffe600" stroke-opacity=".8" stroke-width="6"/>
    <path d="M312 332c24-24 52-24 76 0 24-24 52-24 76 0" fill="none" stroke="#ff2d2d" stroke-width="10" stroke-linecap="round"/>
    <text x="362" y="294" text-anchor="middle" fill="#ffe600" font-family="Trebuchet MS, Arial, sans-serif" font-size="30" letter-spacing="2">EE</text>
  </g>
</svg>
